{"glyphs":{"0":{"ha":1150,"x_min":0,"x_max":0,"o":"m 575 972 b 1061 486 843 971 1060 754 b 575 0 1061 218 843 0 b 89 486 306 0 89 218 b 575 972 89 754 306 972 m 181 486 b 297 207 181 381 223 281 l 812 799 b 399 838 693 890 533 905 b 181 486 266 772 181 635 m 575 92 b 931 317 727 92 866 180 b 879 735 996 455 975 618 l 369 150 b 575 92 431 112 502 92 "},"1":{"ha":417,"x_min":0,"x_max":0,"o":"m 219 879 l 81 879 l 81 972 l 311 972 l 311 0 l 219 0 "},"2":{"ha":778,"x_min":0,"x_max":0,"o":"m 551 574 b 577 772 598 630 608 707 b 409 879 546 838 481 879 l 403 879 b 217 693 300 879 217 796 l 125 693 b 403 972 125 847 249 971 l 409 972 b 661 811 517 972 615 909 b 622 515 706 714 691 598 l 269 92 l 674 92 l 674 0 l 72 0 "},"3":{"ha":749,"x_min":0,"x_max":0,"o":"m 651 706 b 535 486 651 618 607 536 b 573 455 548 477 561 467 b 651 267 623 405 651 337 l 651 266 b 385 0 651 119 532 0 l 355 0 b 89 266 208 0 89 119 l 181 266 b 355 92 181 170 259 92 l 385 92 b 559 266 481 92 559 170 l 559 267 b 508 390 559 313 540 357 b 384 440 475 422 431 440 l 384 532 b 386 532 385 532 385 532 l 386 532 b 559 706 482 533 560 611 b 385 879 559 802 481 880 l 355 879 b 181 706 259 879 181 802 l 89 706 b 355 972 89 853 208 971 l 385 972 b 651 706 532 971 651 853 "},"4":{"ha":851,"x_min":0,"x_max":0,"o":"m 685 296 l 760 296 l 760 204 l 685 204 l 685 0 l 593 0 l 593 204 l 67 204 l 685 1008 m 593 737 l 254 296 l 593 296 "},"5":{"ha":797,"x_min":0,"x_max":0,"o":"m 393 655 b 705 344 565 655 705 516 l 705 312 b 420 1 705 150 581 15 b 86 258 259 -13 114 99 l 177 274 b 412 93 197 162 299 83 b 613 312 526 103 613 198 l 613 344 b 393 563 613 465 515 563 l 135 563 l 203 972 l 672 972 l 672 879 l 281 879 l 244 655 l 393 655 "},"6":{"ha":828,"x_min":0,"x_max":0,"o":"m 415 655 b 729 421 560 655 688 560 b 594 53 771 282 715 132 b 203 79 472 -26 313 -16 b 116 461 92 173 57 328 l 116 461 l 329 972 l 429 972 l 286 629 b 415 655 327 646 371 655 m 415 92 b 651 328 545 92 650 198 b 415 563 651 458 545 563 b 180 328 285 563 180 458 b 415 92 180 198 285 92 "},"7":{"ha":690,"x_min":0,"x_max":0,"o":"m 485 879 l 74 879 l 74 972 l 624 972 l 219 0 l 119 0 "},"8":{"ha":775,"x_min":0,"x_max":0,"o":"m 535 556 b 674 222 651 489 708 352 b 387 2 639 92 521 2 b 100 222 253 2 135 92 b 239 556 66 352 123 489 b 166 816 162 619 133 723 b 387 972 200 909 288 972 b 608 816 486 972 574 909 b 535 556 641 723 612 619 m 245 737 b 387 596 245 659 309 596 b 529 737 465 596 529 659 b 387 879 529 816 465 879 b 245 737 309 879 245 816 m 387 94 b 592 299 500 95 591 186 b 465 488 592 382 542 456 b 242 443 389 519 301 502 b 198 221 184 385 166 297 b 387 94 230 144 304 94 "},"9":{"ha":821,"x_min":0,"x_max":0,"o":"m 409 323 b 98 556 265 323 138 418 b 235 921 57 695 113 843 b 623 891 357 998 515 986 b 703 510 732 796 764 640 l 703 510 l 482 0 l 381 0 l 532 347 b 409 323 493 331 451 323 m 409 879 b 177 647 281 879 177 775 b 409 415 177 519 281 415 b 641 647 537 415 641 519 b 409 879 641 775 537 879 "},"\u0000":{"ha":0,"x_min":0,"x_max":0,"o":""},"\n":{"ha":222,"x_min":0,"x_max":0,"o":""},"\r":{"ha":222,"x_min":0,"x_max":0,"o":""}," ":{"ha":375,"x_min":0,"x_max":0,"o":""},",":{"ha":236,"x_min":0,"x_max":0,"o":"m 180 71 l 127 -156 l 38 -135 l 70 92 "},".":{"ha":235,"x_min":0,"x_max":0,"o":"m 117 0 b 60 57 85 0 60 26 b 117 114 60 89 85 114 b 174 57 148 114 174 89 b 117 0 174 26 148 0 "},"A":{"ha":833,"x_min":0,"x_max":0,"o":"m 19 0 l 419 991 l 814 0 l 714 0 l 633 204 l 201 204 l 119 0 m 238 296 l 596 296 l 418 743 "},"B":{"ha":843,"x_min":0,"x_max":0,"o":"m 791 326 b 465 0 791 146 645 0 l 103 0 l 103 972 l 462 972 b 652 844 545 972 620 921 b 607 620 684 767 666 679 b 791 326 719 566 791 451 m 195 652 l 462 652 b 575 765 524 652 575 702 b 543 846 576 795 564 824 b 462 879 521 867 492 879 l 195 879 m 195 92 l 465 92 b 699 326 594 92 699 197 b 465 560 699 455 594 560 l 195 560 "},"C":{"ha":888,"x_min":0,"x_max":0,"o":"m 541 92 b 792 182 633 92 721 124 l 850 111 b 272 81 685 -25 450 -37 b 76 626 94 200 14 422 b 541 972 138 831 327 972 b 841 869 650 972 755 936 l 784 796 b 541 879 715 850 629 880 b 148 486 324 879 148 703 b 541 92 148 268 324 92 "},"D":{"ha":847,"x_min":0,"x_max":0,"o":"m 305 972 b 791 486 574 972 791 754 b 305 0 791 218 574 0 l 103 0 l 103 972 l 305 972 m 305 92 b 699 486 523 92 699 268 b 305 879 699 703 523 879 l 195 879 l 195 92 l 305 92 "},"E":{"ha":739,"x_min":0,"x_max":0,"o":"m 689 0 l 103 0 l 103 972 l 689 972 l 689 879 l 195 879 l 195 415 l 626 415 l 626 323 l 195 323 l 195 92 l 689 92 "},"F":{"ha":724,"x_min":0,"x_max":0,"o":"m 196 0 l 104 0 l 104 972 l 690 972 l 690 879 l 196 879 l 196 415 l 634 415 l 634 323 l 196 323 "},"G":{"ha":943,"x_min":0,"x_max":0,"o":"m 541 0 b 56 486 273 0 56 218 b 541 972 56 754 273 972 b 841 869 650 972 755 936 l 784 796 b 541 879 715 850 629 880 b 167 607 371 879 219 769 b 312 166 114 444 173 266 b 775 169 450 67 637 68 l 775 441 l 461 441 l 461 534 l 867 534 l 867 125 l 850 111 b 541 0 763 39 654 0 "},"H":{"ha":894,"x_min":0,"x_max":0,"o":"m 196 323 l 196 0 l 104 0 l 104 972 l 196 972 l 196 415 l 697 415 l 697 972 l 789 972 l 789 0 l 697 0 l 697 323 "},"I":{"ha":301,"x_min":0,"x_max":0,"o":"m 104 0 l 104 972 l 196 972 l 196 0 "},"J":{"ha":610,"x_min":0,"x_max":0,"o":"m 232 0 b 13 104 147 0 66 38 l 84 162 b 296 103 135 100 220 76 b 423 283 372 131 423 203 l 423 972 l 515 972 l 515 283 b 232 0 515 127 388 0 "},"K":{"ha":771,"x_min":0,"x_max":0,"o":"m 317 482 l 748 0 l 624 0 l 255 412 l 196 345 l 196 0 l 104 0 l 104 972 l 196 972 l 196 485 l 625 972 l 748 972 "},"L":{"ha":635,"x_min":0,"x_max":0,"o":"m 620 0 l 103 0 l 103 972 l 195 972 l 195 92 l 620 92 "},"M":{"ha":1010,"x_min":0,"x_max":0,"o":"m 812 0 l 812 707 l 503 291 l 196 706 l 196 0 l 104 0 l 104 987 l 503 446 l 905 986 l 905 0 "},"N":{"ha":890,"x_min":0,"x_max":0,"o":"m 196 0 l 104 0 l 104 983 l 694 255 l 694 972 l 786 972 l 786 -5 l 196 723 "},"O":{"ha":1083,"x_min":0,"x_max":0,"o":"m 541 0 b 56 486 273 0 56 218 b 541 972 56 754 273 972 b 1027 486 810 972 1027 754 b 541 0 1027 218 810 0 m 541 879 b 148 486 324 879 148 703 b 541 92 148 268 324 92 b 935 486 759 92 935 268 b 541 879 935 703 759 879 "},"P":{"ha":835,"x_min":0,"x_max":0,"o":"m 789 647 b 465 323 789 468 644 323 l 196 323 l 196 0 l 104 0 l 104 972 l 465 972 b 789 647 644 971 789 826 m 465 415 b 697 647 593 415 697 519 b 465 879 697 775 593 879 l 196 879 l 196 415 l 465 415 "},"Q":{"ha":1094,"x_min":0,"x_max":0,"o":"m 1029 486 b 905 162 1029 366 985 251 l 1026 0 l 911 0 l 837 99 b 232 111 657 -37 407 -33 b 106 703 58 255 6 500 b 654 960 207 905 433 1012 b 1029 486 874 908 1029 712 m 848 238 b 808 777 980 400 962 636 b 268 769 654 918 417 914 b 244 229 118 624 108 387 b 782 173 380 71 616 47 l 636 369 l 751 369 "},"R":{"ha":850,"x_min":0,"x_max":0,"o":"m 196 0 l 104 0 l 104 972 l 465 972 b 787 682 631 972 770 847 b 534 330 805 517 696 366 l 786 0 l 670 0 l 424 323 l 196 323 m 196 415 l 465 415 b 697 647 593 415 697 519 b 465 879 697 775 593 879 l 196 879 "},"S":{"ha":617,"x_min":0,"x_max":0,"o":"m 283 92 b 468 234 370 92 445 150 b 379 448 490 317 454 405 l 162 574 b 63 814 79 622 38 721 b 269 972 88 907 173 972 l 291 972 b 474 867 366 971 436 932 l 395 820 b 291 879 373 857 333 879 l 269 879 b 152 790 214 879 166 843 b 209 654 138 737 161 681 l 425 528 b 557 210 536 464 590 333 b 283 0 524 86 411 0 l 280 0 b 54 112 191 0 107 41 l 128 168 b 280 92 164 120 220 92 "},"T":{"ha":621,"x_min":0,"x_max":0,"o":"m 264 879 l 14 879 l 14 972 l 607 972 l 607 879 l 356 879 l 356 0 l 264 0 "},"U":{"ha":813,"x_min":0,"x_max":0,"o":"m 627 972 l 719 972 l 719 313 b 563 39 720 200 661 96 b 249 39 466 -18 346 -18 b 93 313 151 96 92 200 l 93 972 l 185 972 l 185 313 b 295 119 184 233 226 159 b 517 119 363 79 448 79 b 627 313 586 159 628 233 "},"V":{"ha":729,"x_min":0,"x_max":0,"o":"m 708 972 l 366 -15 l 21 972 l 119 972 l 365 265 l 610 972 "},"W":{"ha":1238,"x_min":0,"x_max":0,"o":"m 1216 972 l 874 -15 l 614 660 l 356 -17 l 21 972 l 118 972 l 357 267 l 613 940 l 874 265 l 1118 972 "},"X":{"ha":747,"x_min":0,"x_max":0,"o":"m 427 487 l 716 0 l 608 0 l 373 397 l 138 0 l 31 0 l 319 487 l 33 972 l 140 972 l 373 578 l 606 972 l 714 972 "},"Y":{"ha":789,"x_min":0,"x_max":0,"o":"m 777 972 l 440 363 l 440 0 l 348 0 l 348 351 l 11 972 l 116 972 l 391 465 l 672 972 "},"Z":{"ha":733,"x_min":0,"x_max":0,"o":"m 707 972 l 187 92 l 672 92 l 672 0 l 25 0 l 545 879 l 53 879 l 53 972 "},"a":{"ha":833,"x_min":0,"x_max":0,"o":"m 19 0 l 419 991 l 814 0 l 714 0 l 633 204 l 201 204 l 119 0 m 238 296 l 596 296 l 418 743 "},"b":{"ha":843,"x_min":0,"x_max":0,"o":"m 791 326 b 465 0 791 146 645 0 l 103 0 l 103 972 l 462 972 b 652 844 545 972 620 921 b 607 620 684 767 666 679 b 791 326 719 566 791 451 m 195 652 l 462 652 b 575 765 524 652 575 702 b 543 846 576 795 564 824 b 462 879 521 867 492 879 l 195 879 m 195 92 l 465 92 b 699 326 594 92 699 197 b 465 560 699 455 594 560 l 195 560 "},"c":{"ha":888,"x_min":0,"x_max":0,"o":"m 541 92 b 792 182 633 92 721 124 l 850 111 b 272 81 685 -25 450 -37 b 76 626 94 200 14 422 b 541 972 138 831 327 972 b 841 869 650 972 755 936 l 784 796 b 541 879 715 850 629 880 b 148 486 324 879 148 703 b 541 92 148 268 324 92 "},"d":{"ha":847,"x_min":0,"x_max":0,"o":"m 305 972 b 791 486 574 972 791 754 b 305 0 791 218 574 0 l 103 0 l 103 972 l 305 972 m 305 92 b 699 486 523 92 699 268 b 305 879 699 703 523 879 l 195 879 l 195 92 l 305 92 "},"e":{"ha":739,"x_min":0,"x_max":0,"o":"m 689 0 l 103 0 l 103 972 l 689 972 l 689 879 l 195 879 l 195 415 l 626 415 l 626 323 l 195 323 l 195 92 l 689 92 "},"f":{"ha":724,"x_min":0,"x_max":0,"o":"m 196 0 l 104 0 l 104 972 l 690 972 l 690 879 l 196 879 l 196 415 l 634 415 l 634 323 l 196 323 "},"g":{"ha":943,"x_min":0,"x_max":0,"o":"m 541 0 b 56 486 273 0 56 218 b 541 972 56 754 273 972 b 841 869 650 972 755 936 l 784 796 b 541 879 715 850 629 880 b 167 607 371 879 219 769 b 312 166 114 444 173 266 b 775 169 450 67 637 68 l 775 441 l 461 441 l 461 534 l 867 534 l 867 125 l 850 111 b 541 0 763 39 654 0 "},"h":{"ha":894,"x_min":0,"x_max":0,"o":"m 196 323 l 196 0 l 104 0 l 104 972 l 196 972 l 196 415 l 697 415 l 697 972 l 789 972 l 789 0 l 697 0 l 697 323 "},"i":{"ha":301,"x_min":0,"x_max":0,"o":"m 104 0 l 104 972 l 196 972 l 196 0 "},"j":{"ha":610,"x_min":0,"x_max":0,"o":"m 232 0 b 13 104 147 0 66 38 l 84 162 b 296 103 135 100 220 76 b 423 283 372 131 423 203 l 423 972 l 515 972 l 515 283 b 232 0 515 127 388 0 "},"k":{"ha":771,"x_min":0,"x_max":0,"o":"m 317 482 l 748 0 l 624 0 l 255 412 l 196 345 l 196 0 l 104 0 l 104 972 l 196 972 l 196 485 l 625 972 l 748 972 "},"l":{"ha":635,"x_min":0,"x_max":0,"o":"m 620 0 l 103 0 l 103 972 l 195 972 l 195 92 l 620 92 "},"m":{"ha":1010,"x_min":0,"x_max":0,"o":"m 812 0 l 812 707 l 503 291 l 196 706 l 196 0 l 104 0 l 104 987 l 503 446 l 905 986 l 905 0 "},"n":{"ha":890,"x_min":0,"x_max":0,"o":"m 196 0 l 104 0 l 104 983 l 694 255 l 694 972 l 786 972 l 786 -5 l 196 723 "},"o":{"ha":1083,"x_min":0,"x_max":0,"o":"m 541 0 b 56 486 273 0 56 218 b 541 972 56 754 273 972 b 1027 486 810 972 1027 754 b 541 0 1027 218 810 0 m 541 879 b 148 486 324 879 148 703 b 541 92 148 268 324 92 b 935 486 759 92 935 268 b 541 879 935 703 759 879 "},"p":{"ha":835,"x_min":0,"x_max":0,"o":"m 789 647 b 465 323 789 468 644 323 l 196 323 l 196 0 l 104 0 l 104 972 l 465 972 b 789 647 644 971 789 826 m 465 415 b 697 647 593 415 697 519 b 465 879 697 775 593 879 l 196 879 l 196 415 l 465 415 "},"q":{"ha":1094,"x_min":0,"x_max":0,"o":"m 1029 486 b 905 162 1029 366 985 251 l 1026 0 l 911 0 l 837 99 b 232 111 657 -37 407 -33 b 106 703 58 255 6 500 b 654 960 207 905 433 1012 b 1029 486 874 908 1029 712 m 848 238 b 808 777 980 400 962 636 b 268 769 654 918 417 914 b 244 229 118 624 108 387 b 782 173 380 71 616 47 l 636 369 l 751 369 "},"r":{"ha":850,"x_min":0,"x_max":0,"o":"m 196 0 l 104 0 l 104 972 l 465 972 b 787 682 631 972 770 847 b 534 330 805 517 696 366 l 786 0 l 670 0 l 424 323 l 196 323 m 196 415 l 465 415 b 697 647 593 415 697 519 b 465 879 697 775 593 879 l 196 879 "},"s":{"ha":617,"x_min":0,"x_max":0,"o":"m 283 92 b 468 234 370 92 445 150 b 379 448 490 317 454 405 l 162 574 b 63 814 79 622 38 721 b 269 972 88 907 173 972 l 291 972 b 474 867 366 971 436 932 l 395 820 b 291 879 373 857 333 879 l 269 879 b 152 790 214 879 166 843 b 209 654 138 737 161 681 l 425 528 b 557 210 536 464 590 333 b 283 0 524 86 411 0 l 280 0 b 54 112 191 0 107 41 l 128 168 b 280 92 164 120 220 92 "},"t":{"ha":621,"x_min":0,"x_max":0,"o":"m 264 879 l 14 879 l 14 972 l 607 972 l 607 879 l 356 879 l 356 0 l 264 0 "},"u":{"ha":813,"x_min":0,"x_max":0,"o":"m 627 972 l 719 972 l 719 313 b 563 39 720 200 661 96 b 249 39 466 -18 346 -18 b 93 313 151 96 92 200 l 93 972 l 185 972 l 185 313 b 295 119 184 233 226 159 b 517 119 363 79 448 79 b 627 313 586 159 628 233 "},"v":{"ha":729,"x_min":0,"x_max":0,"o":"m 708 972 l 366 -15 l 21 972 l 119 972 l 365 265 l 610 972 "},"w":{"ha":1238,"x_min":0,"x_max":0,"o":"m 1216 972 l 874 -15 l 614 660 l 356 -17 l 21 972 l 118 972 l 357 267 l 613 940 l 874 265 l 1118 972 "},"x":{"ha":747,"x_min":0,"x_max":0,"o":"m 427 487 l 716 0 l 608 0 l 373 397 l 138 0 l 31 0 l 319 487 l 33 972 l 140 972 l 373 578 l 606 972 l 714 972 "},"y":{"ha":789,"x_min":0,"x_max":0,"o":"m 777 972 l 440 363 l 440 0 l 348 0 l 348 351 l 11 972 l 116 972 l 391 465 l 672 972 "},"z":{"ha":733,"x_min":0,"x_max":0,"o":"m 707 972 l 187 92 l 672 92 l 672 0 l 25 0 l 545 879 l 53 879 l 53 972 "}," ":{"ha":636,"x_min":0,"x_max":0,"o":""},"­":{"ha":0,"x_min":0,"x_max":0,"o":""}}}
